<svg xmlns="http://www.w3.org/2000/svg" version="1.1" xmlns:xlink="http://www.w3.org/1999/xlink" xmlns:svgjs="http://svgjs.dev/svgjs" width="1000" height="1000" viewBox="0 0 1000 1000"><rect width="1000" height="1000" fill="#ffffff"></rect><g transform="matrix(0.7,0,0,0.7,149.57575759016447,416.3119661491248)"><svg viewBox="0 0 396 95" data-background-color="#ffffff" preserveAspectRatio="xMidYMid meet" height="239" width="1000" xmlns="http://www.w3.org/2000/svg" xmlns:xlink="http://www.w3.org/1999/xlink"><g id="tight-bounds" transform="matrix(1,0,0,1,0.2400000081502185,0.02159722554179666)"><svg viewBox="0 0 395.52 94.95680554891639" height="94.95680554891639" width="395.52"><g><svg viewBox="0 0 542.5058521910034 130.2453041961223" height="94.95680554891639" width="395.52"><g transform="matrix(1,0,0,1,146.98585219100346,12.660368361036937)"><svg viewBox="0 0 395.52 104.92456747404843" height="104.92456747404843" width="395.52"><g id="textblocktransform"><svg viewBox="0 0 395.52 104.92456747404843" height="104.92456747404843" width="395.52" id="textblock"><g><svg viewBox="0 0 395.52 104.92456747404843" height="104.92456747404843" width="395.52"><g transform="matrix(1,0,0,1,0,0)"><svg width="395.52" viewBox="4.320000171661377 -33.08000183105469 127.00000762939453 33.69000244140625" height="104.92456747404843" data-palette-color="#d4cecb"><path d="M10.79-20.58L10.79 0.15Q9.62 0 6.27 0L6.27 0 4.32 0 4.32-32.57Q5.88-32.47 7.76-32.47 9.64-32.47 10.42-32.67L10.42-32.67 18.63-18.73 26.51-32.67Q27.29-32.47 29.49-32.47 31.69-32.47 33.25-32.57L33.25-32.57 33.25 0 31.3 0Q27.95 0 26.78 0.15L26.78 0.15 26.78-21.73 18.8-7.45 10.79-20.58ZM44.43-3.86Q42.21-5.98 40.93-8.96 39.65-11.94 39.65-15.49 39.65-19.04 40.84-22.22 42.04-25.39 44.26-27.81 46.48-30.22 49.63-31.65 52.78-33.08 56.69-33.08L56.69-33.08Q63.43-33.08 68.04-28.83L68.04-28.83Q72.97-24.29 72.97-16.58L72.97-16.58Q72.97-9.11 67.89-4.15L67.89-4.15Q64.77-1.1 60.45 0.05L60.45 0.05Q58.32 0.61 55.48 0.61 52.63 0.61 49.64-0.56 46.65-1.73 44.43-3.86ZM46.43-15.82L46.43-15.82Q46.43-13.55 47.19-11.65 47.95-9.74 49.29-8.37L49.29-8.37Q52.15-5.49 56.64-5.49L56.64-5.49Q60.91-5.49 63.5-8.25L63.5-8.25Q66.14-11.11 66.14-16.04L66.14-16.04Q66.14-20.68 63.62-23.78L63.62-23.78Q60.91-27.1 56.2-27.1L56.2-27.1Q51.63-27.1 48.95-23.73L48.95-23.73Q46.43-20.58 46.43-15.82ZM86.32 0L84 0Q80.41 0 79.24 0.15L79.24 0.15 79.24-32.62Q79.83-32.47 81.67-32.47 83.52-32.47 85.96-32.57L85.96-32.57 85.96-5.86 91.01-5.86Q93.21-5.86 94.53-6.01L94.53-6.01Q94.36-0.29 94.36-0.07L94.36-0.07 94.36 0.17Q91.96 0 86.32 0L86.32 0ZM102.78-3.86Q100.55-5.98 99.27-8.96 97.99-11.94 97.99-15.49 97.99-19.04 99.19-22.22 100.38-25.39 102.6-27.81 104.83-30.22 107.98-31.65 111.13-33.08 115.03-33.08L115.03-33.08Q121.77-33.08 126.38-28.83L126.38-28.83Q131.32-24.29 131.32-16.58L131.32-16.58Q131.32-9.11 126.24-4.15L126.24-4.15Q123.11-1.1 118.79 0.05L118.79 0.05Q116.67 0.61 113.82 0.61 110.98 0.61 107.99-0.56 105-1.73 102.78-3.86ZM104.78-15.82L104.78-15.82Q104.78-13.55 105.53-11.65 106.29-9.74 107.63-8.37L107.63-8.37Q110.49-5.49 114.98-5.49L114.98-5.49Q119.26-5.49 121.84-8.25L121.84-8.25Q124.48-11.11 124.48-16.04L124.48-16.04Q124.48-20.68 121.97-23.78L121.97-23.78Q119.26-27.1 114.54-27.1L114.54-27.1Q109.98-27.1 107.29-23.73L107.29-23.73Q104.78-20.58 104.78-15.82Z" opacity="1" transform="matrix(1,0,0,1,0,0)" fill="#d4cecb" class="wordmark-text-0" data-fill-palette-color="primary" id="text-0"></path></svg></g></svg></g></svg></g></svg></g><g><svg viewBox="0 0 122.21567999999999 130.2453041961223" height="130.2453041961223" width="122.21567999999999"><g><svg xmlns="http://www.w3.org/2000/svg" xmlns:xlink="http://www.w3.org/1999/xlink" version="1.2" baseProfile="tiny" x="0" y="0" viewBox="3.0820000171661377 0 93.83499908447266 100" xml:space="preserve" height="130.2453041961223" width="122.21567999999999" class="icon-icon-0" data-fill-palette-color="accent" id="icon-0"><path d="M93.35 0v2.587c0 1.559-1.157 2.823-2.587 2.823h-4.956c-1.429 0-2.588-1.264-2.588-2.823V0H16.866v2.587c0 1.559-1.158 2.823-2.588 2.823H9.322c-1.429 0-2.587-1.264-2.587-2.823V0H3.082v100h3.659c-0.001-0.021-0.006-0.039-0.006-0.059v-2.694c0-1.56 1.158-2.824 2.587-2.824h4.956c1.43 0 2.588 1.265 2.588 2.824v2.694c0 0.02-0.005 0.038-0.006 0.059h66.364c0-0.021-0.006-0.039-0.006-0.059v-2.694c0-1.56 1.159-2.824 2.588-2.824h4.956c1.43 0 2.587 1.265 2.587 2.824v2.694c0 0.02-0.005 0.038-0.005 0.059h3.573V0H93.35zM16.866 86.032c0 1.559-1.158 2.823-2.588 2.823H9.322c-1.429 0-2.587-1.265-2.587-2.823v-2.693c0-1.56 1.158-2.824 2.587-2.824h4.956c1.43 0 2.588 1.265 2.588 2.824V86.032zM16.866 72.124c0 1.561-1.158 2.824-2.588 2.824H9.322c-1.429 0-2.587-1.264-2.587-2.824v-2.693c0-1.559 1.158-2.823 2.587-2.823h4.956c1.43 0 2.588 1.265 2.588 2.823V72.124zM16.866 58.217c0 1.561-1.158 2.824-2.588 2.824H9.322c-1.429 0-2.587-1.264-2.587-2.824v-2.694c0-1.559 1.158-2.823 2.587-2.823h4.956c1.43 0 2.588 1.265 2.588 2.823V58.217zM16.866 44.31c0 1.559-1.158 2.823-2.588 2.823H9.322c-1.429 0-2.587-1.264-2.587-2.823v-2.694c0-1.56 1.158-2.824 2.587-2.824h4.956c1.43 0 2.588 1.264 2.588 2.824V44.31zM16.866 30.402c0 1.56-1.158 2.824-2.588 2.824H9.322c-1.429 0-2.587-1.264-2.587-2.824v-2.694c0-1.56 1.158-2.824 2.587-2.824h4.956c1.43 0 2.588 1.264 2.588 2.824V30.402zM16.866 16.495c0 1.559-1.158 2.823-2.588 2.823H9.322c-1.429 0-2.587-1.264-2.587-2.823v-2.694c0-1.56 1.158-2.824 2.587-2.824h4.956c1.43 0 2.588 1.264 2.588 2.824V16.495zM79.109 90.546c0 1.832-1.139 3.975-2.966 3.975H24.542c-1.828 0-3.651-2.143-3.651-3.975V56.081c0-1.831 1.823-2.656 3.651-2.656h51.602c1.827 0 2.966 0.825 2.966 2.656V90.546zM79.109 43.066c0 1.749-1.37 3.509-3.279 3.509H24.11c-1.909 0-3.22-1.76-3.22-3.509V8.229c0-1.749 1.311-2.75 3.22-2.75h51.72c1.909 0 3.279 1 3.279 2.75V43.066zM93.35 86.032c0 1.559-1.157 2.823-2.587 2.823h-4.956c-1.429 0-2.588-1.265-2.588-2.823v-2.693c0-1.56 1.159-2.824 2.588-2.824h4.956c1.43 0 2.587 1.265 2.587 2.824V86.032zM93.35 72.124c0 1.561-1.157 2.824-2.587 2.824h-4.956c-1.429 0-2.588-1.264-2.588-2.824v-2.693c0-1.559 1.159-2.823 2.588-2.823h4.956c1.43 0 2.587 1.265 2.587 2.823V72.124zM93.35 58.217c0 1.561-1.157 2.824-2.587 2.824h-4.956c-1.429 0-2.588-1.264-2.588-2.824v-2.694c0-1.559 1.159-2.823 2.588-2.823h4.956c1.43 0 2.587 1.265 2.587 2.823V58.217zM93.35 44.31c0 1.559-1.157 2.823-2.587 2.823h-4.956c-1.429 0-2.588-1.264-2.588-2.823v-2.694c0-1.56 1.159-2.824 2.588-2.824h4.956c1.43 0 2.587 1.264 2.587 2.824V44.31zM93.35 30.402c0 1.56-1.157 2.824-2.587 2.824h-4.956c-1.429 0-2.588-1.264-2.588-2.824v-2.694c0-1.56 1.159-2.824 2.588-2.824h4.956c1.43 0 2.587 1.264 2.587 2.824V30.402zM93.35 16.495c0 1.559-1.157 2.823-2.587 2.823h-4.956c-1.429 0-2.588-1.264-2.588-2.823v-2.694c0-1.56 1.159-2.824 2.588-2.824h4.956c1.43 0 2.587 1.264 2.587 2.824V16.495z" fill="#ff851b" data-fill-palette-color="accent"></path></svg></g></svg></g></svg></g><defs></defs></svg><rect width="395.52" height="94.95680554891639" fill="none" stroke="none" visibility="hidden"></rect></g></svg></g></svg>